<svg xmlns="http://www.w3.org/2000/svg" xmlns:xlink= "http://www.w3.org/1999/xlink" width="900" height="600" >
<style>
rect,circle{
    stroke:black;
    fill:white;
}
line{
    stroke:black;
}
</style>
<defs>
    <marker id="arrow" viewBox="0 0 10 10" refX="5" refY="5"
    markerWidth="6" markerHeight="6"
    orient="auto-start-reverse">
    <path d="M 0 0 L 10 5 L 0 10 z" />
    </marker>
</defs>
    <rect x="5" y="260" stroke-dasharray="4" width="500" height="220" />
    <line x1="250" x2="160" y1="245" y2="290" marker-end="url(#arrow)"/> 
    <line x1="250" x2="320" y1="245" y2="290" marker-end="url(#arrow)"/> 
   <g id="person" transform="scale(1.25,1.25), translate(0,-10)">
       <line x1="10" x2="50" y1="40" y2="80"/>
       <line x1="10" x2="50" y1="80" y2="40"/>
       <line x1="30" x2="30" y1="60" y2="30"/>
       <circle  cx="30" cy="30" r="10"/>
   </g>
   <g transform="translate(0,150)" id="runner">
       <g>
        <text x="50" y="140">Runner 1</text>
        <rect x="10" y="150" width="150" height="150"/>
        <text x="30" y="170">Job 1</text>
        <rect x="20" y="180" width="120" height="90"/>
       </g>
      
     
       
       <text x="40" y="210">Step 1</text>
       <text x="40" y="230">Step 2</text>
       <g transform="translate(160,0)">
           <text x="200" y="140">Runner 2</text>
        <rect x="160" y="150" width="150" height="150"/>
        <text x="170" y="170">Job 2</text>
       
        <rect x="170" y="180" width="120" height="90"/>
        <text x="180" y="210">Step 1</text>
        <text x="180" y="230">Step 2</text>
       </g>
       
   </g>
   <g id="repo">
       <rect x="200" y="20" width="120" height="60"></rect>
       <text x="210" y="40" >Repository</text>

       
   </g>
   <line x1="30" y1="80" x2="70" y2="240"  marker-end="url(#arrow)"/>
   <text x="55" y="150">Löst Event aus</text>

   <line x1="250" y1="80" x2="250" y2="240"  marker-end="url(#arrow)"/>
   <text x="255" y="150">Klont aus Repository</text>
</svg>