<?xml version="1.0" encoding="UTF-8" standalone="no"?>
<svg
   height="336.36642pt"
   version="1.1"
   viewBox="0 0 331.63019 336.36642"
   width="331.63019pt"
   id="svg539"
   sodipodi:docname="argo.svg"
   inkscape:version="1.1 (c68e22c387, 2021-05-23)"
   xmlns:inkscape="http://www.inkscape.org/namespaces/inkscape"
   xmlns:sodipodi="http://sodipodi.sourceforge.net/DTD/sodipodi-0.dtd"
   xmlns="http://www.w3.org/2000/svg"
   xmlns:svg="http://www.w3.org/2000/svg"
   xmlns:rdf="http://www.w3.org/1999/02/22-rdf-syntax-ns#"
   xmlns:cc="http://creativecommons.org/ns#"
   xmlns:dc="http://purl.org/dc/elements/1.1/">
  <sodipodi:namedview
     id="namedview541"
     pagecolor="#ffffff"
     bordercolor="#666666"
     borderopacity="1.0"
     inkscape:pageshadow="2"
     inkscape:pageopacity="0.0"
     inkscape:pagecheckerboard="0"
     inkscape:document-units="pt"
     showgrid="false"
     inkscape:zoom="0.66801075"
     inkscape:cx="208.82897"
     inkscape:cy="629.48089"
     inkscape:window-width="1366"
     inkscape:window-height="705"
     inkscape:window-x="-8"
     inkscape:window-y="-8"
     inkscape:window-maximized="1"
     inkscape:current-layer="axes_1"
     fit-margin-top="5"
     fit-margin-left="5"
     fit-margin-right="5"
     fit-margin-bottom="5" />
  <metadata
     id="metadata276">
    <rdf:RDF>
      <cc:Work>
        <dc:type
           rdf:resource="http://purl.org/dc/dcmitype/StillImage" />
        <dc:date>2022-03-08T20:43:10.764067</dc:date>
        <dc:format>image/svg+xml</dc:format>
        <dc:creator>
          <cc:Agent>
            <dc:title>Matplotlib v3.4.2, https://matplotlib.org/</dc:title>
          </cc:Agent>
        </dc:creator>
      </cc:Work>
    </rdf:RDF>
  </metadata>
  <defs
     id="defs280">
    <style
       type="text/css"
       id="style278">*{stroke-linecap:butt;stroke-linejoin:round;}</style>
  </defs>
  <g
     id="figure_1"
     transform="translate(-111.91923,-122.25769)">
    <g
       id="patch_1">
      <path
         d="M 0,558 H 558 V 0 H 0 Z"
         style="fill:#ffffff"
         id="path282" />
    </g>
    <g
       id="axes_1">
      <g
         id="patch_2">
        <path
           clip-path="url(#pb40108dabd)"
           d="m 304.25565,101.07093 c -44.46392,-5.076878 -89.23981,6.89311 -125.23894,33.48027 -35.99913,26.58715 -60.609,65.86202 -68.83425,109.85247 3.37338,-10.51579 7.77578,-20.67325 13.14321,-30.32479 5.36743,-9.65154 11.67378,-18.75017 18.8274,-27.16368 16.53072,-27.81164 40.407,-50.53989 68.99883,-65.6812 28.59182,-15.1413 60.80935,-22.118513 93.10375,-20.16307"
           style="opacity:0.4;fill:#ff0000"
           id="path285" />
      </g>
      <g
         id="patch_3">
        <path
           clip-path="url(#pb40108dabd)"
           d="m 304.25565,101.07093 c 37.82077,4.31836 73.25814,20.72397 101.02133,46.76749 27.7632,26.04351 46.39819,60.36097 53.12281,97.82881 6.72461,37.46784 1.18666,76.12378 -15.78705,110.19654 -16.97371,34.07276 -44.49422,61.77785 -78.45275,78.97895 -2.61933,1.77067 -5.28813,3.46702 -8.00322,5.08703 -2.71509,1.62 -5.47539,3.16301 -8.27759,4.62719 39.04571,-12.64225 72.47307,-38.53867 94.47051,-73.18699 21.99744,-34.64832 31.21173,-75.91708 26.04092,-116.6314 -5.17082,-40.71432 -24.40865,-78.36959 -54.36887,-106.41916 -29.96022,-28.04958 -68.79976,-44.76793 -109.76609,-47.24846"
           style="opacity:0.4;fill:#008000"
           id="path288" />
      </g>
      <g
         id="patch_4">
        <path
           clip-path="url(#pb40108dabd)"
           d="m 304.25565,101.07093 c -32.2944,-1.955443 -64.51193,5.02177 -93.10375,20.16307 -28.59183,15.14131 -52.46811,37.86956 -68.99883,65.6812 15.53062,-18.26585 34.7941,-32.99602 56.49149,-43.19723 21.69739,-10.20122 45.32979,-15.63893 69.30367,-15.94646 23.97388,-0.30754 47.73799,4.52217 69.68992,14.16346 21.95193,9.64129 41.58691,23.87247 57.58097,41.73392 15.99406,17.86146 27.97942,38.9425 35.14793,61.82162 7.1685,22.87912 9.3553,47.03025 6.41296,70.82487 -2.94235,23.79462 -10.94619,46.68562 -23.47183,67.12944 -12.52564,20.44382 -29.28507,37.9704 -49.14819,51.3979 33.95853,-17.2011 61.47904,-44.90619 78.45275,-78.97895 16.97371,-34.07276 22.51166,-72.7287 15.78705,-110.19654 -6.72462,-37.46784 -25.35961,-71.7853 -53.12281,-97.82881 -27.76319,-26.04352 -63.20056,-42.44913 -101.02133,-46.76749"
           style="opacity:0.4;fill:#b25a00"
           id="path291" />
      </g>
      <g
         id="patch_5">
        <path
           clip-path="url(#pb40108dabd)"
           d="m 110.18246,244.40367 c -10.17362,31.7141 -10.686991,65.74903 -1.4745,97.75554 9.2125,32.0065 27.74098,60.56058 53.21774,82.01336 25.47675,21.45278 56.76828,34.8498 89.87591,38.47909 33.10763,3.62928 66.55835,-2.67064 96.07757,-18.09472 -7.06062,2.28609 -14.25864,4.12379 -21.55103,5.50209 -7.29238,1.37831 -14.66458,2.29448 -22.0725,2.74303 -27.5199,3.14222 -55.39698,-0.21858 -81.3816,-9.81116 -25.98462,-9.59259 -49.35848,-25.1518 -68.23535,-45.42203 -18.87686,-20.27023 -32.73491,-44.69115 -40.45581,-71.29201 -7.72091,-26.60086 -9.09125,-54.64634 -4.00043,-81.87319"
           style="opacity:0.4;fill:#0000ff"
           id="path294" />
      </g>
      <g
         id="patch_6">
        <path
           clip-path="url(#pb40108dabd)"
           d="m 110.18246,244.40367 c -5.09082,27.22685 -3.72048,55.27233 4.00043,81.87319 7.7209,26.60086 21.57895,51.02178 40.45581,71.29201 18.87687,20.27023 42.25073,35.82944 68.23535,45.42203 25.98462,9.59258 53.8617,12.95338 81.3816,9.81116 -31.9595,1.93517 -63.85004,-4.87764 -92.22898,-19.70295 -28.37894,-14.82532 -52.18699,-37.10978 -68.85405,-64.44773 -16.66706,-27.33795 -25.571,-58.70896 -25.75062,-90.72649 -0.17961,-32.01753 8.37179,-63.48646 24.73107,-91.00969 -7.15362,8.41351 -13.45997,17.51214 -18.8274,27.16368 -5.36743,9.65154 -9.76983,19.809 -13.14321,30.32479"
           style="opacity:0.4;fill:#b200b2"
           id="path297" />
      </g>
      <g
         id="patch_7">
        <path
           clip-path="url(#pb40108dabd)"
           d="m 364.15999,434.84272 c -9.35346,4.73783 -19.10942,8.63524 -29.15274,11.64623 -10.04332,3.01099 -20.33433,5.12367 -30.7516,6.31311 7.40792,-0.44855 14.78012,-1.36472 22.0725,-2.74303 7.29239,-1.3783 14.49041,-3.216 21.55103,-5.50209 2.8022,-1.46418 5.5625,-3.00719 8.27759,-4.62719 2.71509,-1.62001 5.38389,-3.31636 8.00322,-5.08703"
           style="opacity:0.4;fill:#005ab2"
           id="path300" />
      </g>
      <g
         id="patch_8">
        <path
           clip-path="url(#pb40108dabd)"
           d="m 142.15307,186.9152 c -16.35928,27.52323 -24.91068,58.99216 -24.73107,91.00969 0.17962,32.01753 9.08356,63.38854 25.75062,90.72649 16.66706,27.33795 40.47511,49.62241 68.85405,64.44773 28.37894,14.82531 60.26948,21.63812 92.22898,19.70295 10.41727,-1.18944 20.70828,-3.30212 30.7516,-6.31311 10.04332,-3.01099 19.79928,-6.9084 29.15274,-11.64623 19.86312,-13.4275 36.62255,-30.95408 49.14819,-51.3979 12.52564,-20.44382 20.52948,-43.33482 23.47183,-67.12944 2.94234,-23.79462 0.75554,-47.94575 -6.41296,-70.82487 -7.16851,-22.87912 -19.15387,-43.96016 -35.14793,-61.82162 -15.99406,-17.86145 -35.62904,-32.09263 -57.58097,-41.73392 -21.95193,-9.64129 -45.71604,-14.471 -69.68992,-14.16346 -23.97388,0.30753 -47.60628,5.74524 -69.30367,15.94646 -21.69739,10.20121 -40.96087,24.93138 -56.49149,43.19723"
           style="opacity:0.4;stroke:#000000;stroke-linejoin:miter"
           id="path303" />
      </g>
      <g
         id="patch_9">
        <path
           clip-path="url(#pb40108dabd)"
           d="m 284.17537,453.94473 c 46.94313,0 91.96991,-18.6507 125.16372,-51.84451 33.19381,-33.19381 51.84451,-78.22059 51.84451,-125.16372 0,-46.94314 -18.6507,-91.96992 -51.84451,-125.16373 -33.19381,-33.19381 -78.22059,-51.84451 -125.16372,-51.84451 -46.94314,0 -91.96992,18.6507 -125.16373,51.84451 -33.1938,33.19381 -51.84451,78.22059 -51.84451,125.16373 0,46.94313 18.65071,91.96991 51.84451,125.16372 33.19381,33.19381 78.22059,51.84451 125.16373,51.84451 z"
           style="fill:none;stroke:#000000;stroke-linejoin:miter"
           id="path306" />
      </g>
      <g
         id="patch_10">
        <path
           clip-path="url(#pb40108dabd)"
           d="m 293.6069,453.12416 c 46.72551,0 91.54356,-18.56424 124.58349,-51.60417 33.03993,-33.03993 51.60417,-77.85798 51.60417,-124.58349 0,-46.72552 -18.56424,-91.54357 -51.60417,-124.5835 -33.03993,-33.03993 -77.85798,-51.60417 -124.58349,-51.60417 -46.72552,0 -91.54357,18.56424 -124.5835,51.60417 -33.03993,33.03993 -51.60417,77.85798 -51.60417,124.5835 0,46.72551 18.56424,91.54356 51.60417,124.58349 33.03993,33.03993 77.85798,51.60417 124.5835,51.60417 z"
           style="fill:none;stroke:#000000;stroke-linejoin:miter"
           id="path309" />
      </g>
      <g
         id="patch_11">
        <path
           clip-path="url(#pb40108dabd)"
           d="m 270.10246,463.65174 c 44.54007,0 87.26189,-17.69596 118.75648,-49.19055 31.49459,-31.49458 49.19055,-74.2164 49.19055,-118.75648 0,-44.54007 -17.69596,-87.26189 -49.19055,-118.75648 -31.49459,-31.49458 -74.21641,-49.19054 -118.75648,-49.19054 -44.54007,0 -87.26189,17.69596 -118.75648,49.19054 -31.49459,31.49459 -49.19054,74.21641 -49.19054,118.75648 0,44.54008 17.69595,87.2619 49.19054,118.75648 31.49459,31.49459 74.21641,49.19055 118.75648,49.19055 z"
           style="fill:none;stroke:#000000;stroke-linejoin:miter"
           id="path312" />
      </g>
    </g>
  </g>
  <defs
     id="defs537">
    <clipPath
       id="pb40108dabd">
      <rect
         height="428.53436"
         width="432.45001"
         x="69.75"
         y="67.522827"
         id="rect534" />
    </clipPath>
  </defs>
</svg>
