<?xml version="1.0" encoding="UTF-8" standalone="no"?>
<!-- Created with Inkscape (http://www.inkscape.org/) -->

<svg
   width="49.562374mm"
   height="57.83604mm"
   viewBox="0 0 49.562374 57.83604"
   version="1.1"
   id="svg499"
   inkscape:version="1.1 (c68e22c387, 2021-05-23)"
   sodipodi:docname="legende_venn.svg"
   xmlns:inkscape="http://www.inkscape.org/namespaces/inkscape"
   xmlns:sodipodi="http://sodipodi.sourceforge.net/DTD/sodipodi-0.dtd"
   xmlns:xlink="http://www.w3.org/1999/xlink"
   xmlns="http://www.w3.org/2000/svg"
   xmlns:svg="http://www.w3.org/2000/svg">
  <sodipodi:namedview
     id="namedview501"
     pagecolor="#ffffff"
     bordercolor="#666666"
     borderopacity="1.0"
     inkscape:pageshadow="2"
     inkscape:pageopacity="0.0"
     inkscape:pagecheckerboard="0"
     inkscape:document-units="mm"
     showgrid="false"
     fit-margin-top="5"
     fit-margin-left="5"
     fit-margin-right="5"
     fit-margin-bottom="10"
     inkscape:zoom="1.3102506"
     inkscape:cx="-32.436543"
     inkscape:cy="170.57805"
     inkscape:window-width="1366"
     inkscape:window-height="705"
     inkscape:window-x="-8"
     inkscape:window-y="-8"
     inkscape:window-maximized="1"
     inkscape:current-layer="layer1" />
  <defs
     id="defs496">
    <path
       d="m 628,4666 h 631 V 531 H 3531 V 0 H 628 Z"
       id="DejaVuSans-4c"
       transform="scale(0.015625)" />
    <path
       d="M 3597,1894 V 1613 H 953 q 38,-594 358,-905 320,-311 892,-311 331,0 642,81 311,81 618,244 V 178 Q 3153,47 2828,-22 2503,-91 2169,-91 1331,-91 842,396 353,884 353,1716 q 0,859 464,1363 464,505 1252,505 706,0 1117,-455 411,-454 411,-1235 z m -575,169 q -6,471 -264,752 -258,282 -683,282 -481,0 -770,-272 -289,-272 -333,-766 z"
       id="DejaVuSans-65"
       transform="scale(0.015625)" />
    <path
       d="m 2906,1791 q 0,625 -258,968 -257,344 -723,344 -462,0 -720,-344 -258,-343 -258,-968 0,-622 258,-966 258,-344 720,-344 466,0 723,344 258,344 258,966 z M 3481,434 q 0,-893 -397,-1329 -396,-436 -1215,-436 -303,0 -572,45 -269,45 -522,139 v 559 q 253,-137 500,-202 247,-66 503,-66 566,0 847,295 281,295 281,892 V 616 Q 2728,306 2450,153 2172,0 1784,0 1141,0 747,490 353,981 353,1791 q 0,812 394,1302 394,491 1037,491 388,0 666,-153 278,-153 456,-462 v 531 h 575 z"
       id="DejaVuSans-67"
       transform="scale(0.015625)" />
    <path
       d="M 3513,2113 V 0 h -575 v 2094 q 0,497 -194,743 -194,247 -581,247 -466,0 -735,-297 -269,-296 -269,-809 V 0 H 581 v 3500 h 578 v -544 q 207,316 486,472 280,156 646,156 603,0 912,-373 310,-373 310,-1098 z"
       id="DejaVuSans-6e"
       transform="scale(0.015625)" />
    <path
       d="m 2906,2969 v 1894 h 575 V 0 H 2906 V 525 Q 2725,213 2448,61 2172,-91 1784,-91 1150,-91 751,415 353,922 353,1747 q 0,825 398,1331 399,506 1033,506 388,0 664,-152 277,-151 458,-463 z M 947,1747 q 0,-634 261,-995 261,-361 717,-361 456,0 718,361 263,361 263,995 0,634 -263,995 -262,361 -718,361 -456,0 -717,-361 -261,-361 -261,-995 z"
       id="DejaVuSans-64"
       transform="scale(0.015625)" />
    <path
       d="m 3272,-594 v -450 h -194 q -778,0 -1042,232 -264,231 -264,921 v 747 q 0,472 -169,653 -169,182 -612,182 H 800 v 447 h 191 q 447,0 614,179 167,180 167,646 v 750 q 0,690 264,920 264,230 1042,230 h 194 v -447 h -213 q -440,0 -575,-138 -134,-137 -134,-578 v -775 q 0,-491 -142,-713 -142,-221 -486,-299 347,-85 487,-307 141,-222 141,-709 V 122 q 0,-441 134,-578 135,-138 575,-138 z"
       id="DejaVuSans-7b"
       transform="scale(0.015625)" />
    <path
       d="m 800,-594 h 219 q 437,0 570,135 133,134 133,581 v 775 q 0,487 140,709 141,222 488,307 -347,78 -488,299 -140,222 -140,713 v 775 q 0,444 -133,580 -133,136 -570,136 H 800 v 447 h 197 q 778,0 1039,-230 261,-230 261,-920 v -750 q 0,-466 168,-646 169,-179 613,-179 h 194 v -447 h -194 q -444,0 -613,-182 -168,-181 -168,-653 V 109 q 0,-690 -261,-921 -261,-232 -1039,-232 H 800 Z"
       id="DejaVuSans-7d"
       transform="scale(0.015625)" />
    <path
       d="m 750,794 h 659 V 256 L 897,-744 H 494 L 750,256 Z"
       id="DejaVuSans-2c"
       transform="scale(0.015625)" />
    <path
       id="DejaVuSans-20"
       transform="scale(0.015625)"
       d="" />
  </defs>
  <g
     inkscape:label="Ebene 1"
     inkscape:groupmode="layer"
     id="layer1"
     transform="translate(-27.764967,-19.274294)">
    <g
       id="legend_1"
       transform="matrix(0.35277777,0,0,0.35277777,26.058951,-108.26255)"
       style="stroke-linecap:butt;stroke-linejoin:round">
      <g
         id="patch_12">
        <path
           d="m 21.50918,496.62 h 107.14531 q 2,0 2,-2 V 378.195 q 0,-2 -2,-2 H 21.50918 q -2,0 -2,2 V 494.62 q 0,2 2,2 z"
           style="opacity:0.8;fill:#ffffff;stroke:#cccccc;stroke-linejoin:miter"
           id="path2847" />
      </g>
      <g
         id="text_4">
        <!-- Legende -->
        <g
           transform="matrix(0.1,0,0,-0.1,53.636524,387.79344)"
           id="g2871">
          <defs
             id="defs2855">
            <path
               d="m 628,4666 h 631 V 531 H 3531 V 0 H 628 Z"
               id="path736"
               transform="scale(0.015625)" />
            <path
               d="M 3597,1894 V 1613 H 953 q 38,-594 358,-905 320,-311 892,-311 331,0 642,81 311,81 618,244 V 178 Q 3153,47 2828,-22 2503,-91 2169,-91 1331,-91 842,396 353,884 353,1716 q 0,859 464,1363 464,505 1252,505 706,0 1117,-455 411,-454 411,-1235 z m -575,169 q -6,471 -264,752 -258,282 -683,282 -481,0 -770,-272 -289,-272 -333,-766 z"
               id="path738"
               transform="scale(0.015625)" />
            <path
               d="m 2906,1791 q 0,625 -258,968 -257,344 -723,344 -462,0 -720,-344 -258,-343 -258,-968 0,-622 258,-966 258,-344 720,-344 466,0 723,344 258,344 258,966 z M 3481,434 q 0,-893 -397,-1329 -396,-436 -1215,-436 -303,0 -572,45 -269,45 -522,139 v 559 q 253,-137 500,-202 247,-66 503,-66 566,0 847,295 281,295 281,892 V 616 Q 2728,306 2450,153 2172,0 1784,0 1141,0 747,490 353,981 353,1791 q 0,812 394,1302 394,491 1037,491 388,0 666,-153 278,-153 456,-462 v 531 h 575 z"
               id="path740"
               transform="scale(0.015625)" />
            <path
               d="M 3513,2113 V 0 h -575 v 2094 q 0,497 -194,743 -194,247 -581,247 -466,0 -735,-297 -269,-296 -269,-809 V 0 H 581 v 3500 h 578 v -544 q 207,316 486,472 280,156 646,156 603,0 912,-373 310,-373 310,-1098 z"
               id="path742"
               transform="scale(0.015625)" />
            <path
               d="m 2906,2969 v 1894 h 575 V 0 H 2906 V 525 Q 2725,213 2448,61 2172,-91 1784,-91 1150,-91 751,415 353,922 353,1747 q 0,825 398,1331 399,506 1033,506 388,0 664,-152 277,-151 458,-463 z M 947,1747 q 0,-634 261,-995 261,-361 717,-361 456,0 718,361 263,361 263,995 0,634 -263,995 -262,361 -718,361 -456,0 -717,-361 -261,-361 -261,-995 z"
               id="path744"
               transform="scale(0.015625)" />
          </defs>
          <use
             xlink:href="#DejaVuSans-4c"
             id="use2857"
             x="0"
             y="0"
             width="100%"
             height="100%" />
          <use
             x="53.962891"
             xlink:href="#DejaVuSans-65"
             id="use2859"
             y="0"
             width="100%"
             height="100%" />
          <use
             x="115.48633"
             xlink:href="#DejaVuSans-67"
             id="use2861"
             y="0"
             width="100%"
             height="100%" />
          <use
             x="178.96289"
             xlink:href="#DejaVuSans-65"
             id="use2863"
             y="0"
             width="100%"
             height="100%" />
          <use
             x="240.48633"
             xlink:href="#DejaVuSans-6e"
             id="use2865"
             y="0"
             width="100%"
             height="100%" />
          <use
             x="303.86523"
             xlink:href="#DejaVuSans-64"
             id="use2867"
             y="0"
             width="100%"
             height="100%" />
          <use
             x="367.3418"
             xlink:href="#DejaVuSans-65"
             id="use2869"
             y="0"
             width="100%"
             height="100%" />
        </g>
      </g>
      <g
         id="patch_13">
        <path
           d="m 23.50918,402.47156 h 20 v -7 h -20 z"
           style="opacity:0.4;fill:#ff0000"
           id="path2874" />
      </g>
      <g
         id="text_5">
        <!-- {DE} -->
        <g
           transform="matrix(0.1,0,0,-0.1,51.50918,402.47156)"
           id="g2889">
          <defs
             id="defs2879">
            <path
               d="m 3272,-594 v -450 h -194 q -778,0 -1042,232 -264,231 -264,921 v 747 q 0,472 -169,653 -169,182 -612,182 H 800 v 447 h 191 q 447,0 614,179 167,180 167,646 v 750 q 0,690 264,920 264,230 1042,230 h 194 v -447 h -213 q -440,0 -575,-138 -134,-137 -134,-578 v -775 q 0,-491 -142,-713 -142,-221 -486,-299 347,-85 487,-307 141,-222 141,-709 V 122 q 0,-441 134,-578 135,-138 575,-138 z"
               id="path758"
               transform="scale(0.015625)" />
            <path
               d="m 800,-594 h 219 q 437,0 570,135 133,134 133,581 v 775 q 0,487 140,709 141,222 488,307 -347,78 -488,299 -140,222 -140,713 v 775 q 0,444 -133,580 -133,136 -570,136 H 800 v 447 h 197 q 778,0 1039,-230 261,-230 261,-920 v -750 q 0,-466 168,-646 169,-179 613,-179 h 194 v -447 h -194 q -444,0 -613,-182 -168,-181 -168,-653 V 109 q 0,-690 -261,-921 -261,-232 -1039,-232 H 800 Z"
               id="path760"
               transform="scale(0.015625)" />
          </defs>
          <use
             xlink:href="#DejaVuSans-7b"
             id="use2881"
             x="0"
             y="0"
             width="100%"
             height="100%" />
          <path
             d="m 83.294922,64.796875 v -56.6875 h 11.921875 q 15.093753,0 22.093753,6.828125 7,6.84375 7,21.59375 0,14.640625 -7,21.453125 -7,6.8125 -22.093753,6.8125 z m -9.859375,8.109375 h 20.265625 q 21.187498,0 31.093748,-8.8125 9.92188,-8.8125 9.92188,-27.5625 0,-18.859375 -9.96875,-27.703125 Q 114.79492,0 93.701172,0 H 73.435547 Z"
             id="use2883"
             style="stroke-width:0.015625" />
          <path
             d="m 150.4375,72.90625 h 46.09375 v -8.3125 H 160.29687 V 43.015625 h 34.71875 V 34.71875 H 160.29687 V 8.296875 h 37.10938 V 0 H 150.4375 Z"
             id="use2885"
             style="stroke-width:0.015625" />
          <use
             x="203.80859"
             xlink:href="#DejaVuSans-7d"
             id="use2887"
             y="0"
             width="100%"
             height="100%" />
        </g>
      </g>
      <g
         id="patch_14">
        <path
           d="m 23.50918,417.14969 h 20 v -7 h -20 z"
           style="opacity:0.4;fill:#008000"
           id="path2892" />
      </g>
      <g
         id="text_6">
        <!-- {CS} -->
        <g
           transform="matrix(0.1,0,0,-0.1,51.50918,417.14969)"
           id="g2903">
          <use
             xlink:href="#DejaVuSans-7b"
             id="use2895"
             x="0"
             y="0"
             width="100%"
             height="100%" />
          <path
             d="M 128.0293,67.28125 V 56.890625 q -4.98438,4.640625 -10.625,6.921875 -5.64063,2.296875 -11.98438,2.296875 -12.499998,0 -19.140623,-7.640625 -6.640625,-7.640625 -6.640625,-22.09375 0,-14.40625 6.640625,-22.046875 Q 92.919922,6.6875 105.41992,6.6875 q 6.34375,0 11.98438,2.296875 5.64062,2.296875 10.625,6.9375 v -10.3125 q -5.17188,-3.515625 -10.96875,-5.28125 -5.78125,-1.75 -12.21875,-1.75 -16.562503,0 -26.093753,10.125 -9.515625,10.140625 -9.515625,27.671875 0,17.578125 9.515625,27.703125 9.53125,10.140625 26.093753,10.140625 6.53125,0 12.3125,-1.734375 5.79687,-1.734375 10.875,-5.203125 z"
             id="use2897"
             style="stroke-width:0.015625" />
          <path
             d="m 186.96289,70.515625 v -9.625 q -5.60937,2.6875 -10.59375,4 -4.98437,1.328125 -9.625,1.328125 -8.04687,0 -12.42187,-3.125 -4.375,-3.125 -4.375,-8.890625 0,-4.84375 2.90625,-7.3125 2.90625,-2.453125 11.01562,-3.96875 l 5.95313,-1.21875 q 11.03125,-2.109375 16.28125,-7.40625 5.25,-5.296875 5.25,-14.171875 0,-10.609375 -7.10938,-16.078125 -7.09375,-5.46875 -20.8125,-5.46875 -5.17187,0 -11.01562,1.171875 -5.82813,1.171875 -12.07813,3.46875 V 13.375 q 6,-3.359375 11.76563,-5.078125 5.76562,-1.703125 11.32812,-1.703125 8.4375,0 13.03125,3.3125 4.59375,3.328125 4.59375,9.484375 0,5.359375 -3.29687,8.390625 -3.29688,3.03125 -10.8125,4.546875 L 160.93164,33.5 q -11.03125,2.1875 -15.96875,6.875 -4.92187,4.6875 -4.92187,13.046875 0,9.671875 6.8125,15.234375 6.8125,5.5625 18.76562,5.5625 5.14063,0 10.45313,-0.9375 5.32812,-0.921875 10.89062,-2.765625 z"
             id="use2899"
             style="stroke-width:0.015625" />
          <use
             x="196.92383"
             xlink:href="#DejaVuSans-7d"
             id="use2901"
             y="0"
             width="100%"
             height="100%" />
        </g>
      </g>
      <g
         id="patch_15">
        <path
           d="m 23.50918,431.82781 h 20 v -7 h -20 z"
           style="opacity:0.4;fill:#b25a00"
           id="path2906" />
      </g>
      <g
         id="text_7">
        <!-- {DE, CS} -->
        <g
           transform="matrix(0.1,0,0,-0.1,51.50918,431.82781)"
           id="g2929">
          <defs
             id="defs2911">
            <path
               d="m 750,794 h 659 V 256 L 897,-744 H 494 L 750,256 Z"
               id="path779"
               transform="scale(0.015625)" />
            <path
               id="path781"
               transform="scale(0.015625)"
               d="" />
          </defs>
          <use
             xlink:href="#DejaVuSans-7b"
             id="use2913"
             x="0"
             y="0"
             width="100%"
             height="100%" />
          <path
             d="m 83.294922,64.796875 v -56.6875 h 11.921875 q 15.093753,0 22.093753,6.828125 7,6.84375 7,21.59375 0,14.640625 -7,21.453125 -7,6.8125 -22.093753,6.8125 z m -9.859375,8.109375 h 20.265625 q 21.187498,0 31.093748,-8.8125 9.92188,-8.8125 9.92188,-27.5625 0,-18.859375 -9.96875,-27.703125 Q 114.79492,0 93.701172,0 H 73.435547 Z"
             id="use2915"
             style="stroke-width:0.015625" />
          <path
             d="m 150.4375,72.90625 h 46.09375 v -8.3125 H 160.29687 V 43.015625 h 34.71875 V 34.71875 H 160.29687 V 8.296875 h 37.10938 V 0 H 150.4375 Z"
             id="use2917"
             style="stroke-width:0.015625" />
          <use
             x="203.80859"
             xlink:href="#DejaVuSans-2c"
             id="use2919"
             y="0"
             width="100%"
             height="100%" />
          <use
             x="235.5957"
             xlink:href="#DejaVuSans-20"
             id="use2921"
             y="0"
             width="100%"
             height="100%" />
          <path
             d="M 331.78906,67.28125 V 56.890625 q -4.98437,4.640625 -10.625,6.921875 -5.64062,2.296875 -11.98437,2.296875 -12.5,0 -19.14063,-7.640625 -6.64062,-7.640625 -6.64062,-22.09375 0,-14.40625 6.64062,-22.046875 6.64063,-7.640625 19.14063,-7.640625 6.34375,0 11.98437,2.296875 5.64063,2.296875 10.625,6.9375 v -10.3125 q -5.17187,-3.515625 -10.96875,-5.28125 -5.78125,-1.75 -12.21875,-1.75 -16.5625,0 -26.09375,10.125 -9.51562,10.140625 -9.51562,27.671875 0,17.578125 9.51562,27.703125 9.53125,10.140625 26.09375,10.140625 6.53125,0 12.3125,-1.734375 5.79688,-1.734375 10.875,-5.203125 z"
             id="use2923"
             style="stroke-width:0.015625" />
          <path
             d="m 390.72266,70.515625 v -9.625 q -5.60938,2.6875 -10.59375,4 -4.98438,1.328125 -9.625,1.328125 -8.04688,0 -12.42188,-3.125 -4.375,-3.125 -4.375,-8.890625 0,-4.84375 2.90625,-7.3125 2.90625,-2.453125 11.01563,-3.96875 l 5.95312,-1.21875 q 11.03125,-2.109375 16.28125,-7.40625 5.25,-5.296875 5.25,-14.171875 0,-10.609375 -7.10937,-16.078125 -7.09375,-5.46875 -20.8125,-5.46875 -5.17188,0 -11.01563,1.171875 -5.82812,1.171875 -12.07812,3.46875 V 13.375 q 6,-3.359375 11.76562,-5.078125 5.76563,-1.703125 11.32813,-1.703125 8.4375,0 13.03125,3.3125 4.59375,3.328125 4.59375,9.484375 0,5.359375 -3.29688,8.390625 -3.29687,3.03125 -10.8125,4.546875 L 364.69141,33.5 q -11.03125,2.1875 -15.96875,6.875 -4.92188,4.6875 -4.92188,13.046875 0,9.671875 6.8125,15.234375 6.8125,5.5625 18.76563,5.5625 5.14062,0 10.45312,-0.9375 5.32813,-0.921875 10.89063,-2.765625 z"
             id="use2925"
             style="stroke-width:0.015625" />
          <use
             x="400.68359"
             xlink:href="#DejaVuSans-7d"
             id="use2927"
             y="0"
             width="100%"
             height="100%" />
        </g>
      </g>
      <g
         id="patch_16">
        <path
           d="m 23.50918,446.50594 h 20 v -7 h -20 z"
           style="opacity:0.4;fill:#0000ff"
           id="path2932" />
      </g>
      <g
         id="text_8">
        <!-- {PMD} -->
        <g
           transform="matrix(0.1,0,0,-0.1,51.50918,446.50594)"
           id="g2945">
          <use
             xlink:href="#DejaVuSans-7b"
             id="use2935"
             x="0"
             y="0"
             width="100%"
             height="100%" />
          <path
             d="M 83.294922,64.796875 V 37.40625 h 12.40625 q 6.890628,0 10.640628,3.5625 3.76562,3.5625 3.76562,10.15625 0,6.546875 -3.76562,10.109375 -3.75,3.5625 -10.640628,3.5625 z m -9.859375,8.109375 h 22.265625 q 12.265628,0 18.531248,-5.546875 6.28125,-5.546875 6.28125,-16.234375 0,-10.796875 -6.28125,-16.3125 -6.26562,-5.515625 -18.531248,-5.515625 H 83.294922 V 0 h -9.859375 z"
             id="use2937"
             style="stroke-width:0.015625" />
          <path
             d="m 133.73828,72.90625 h 14.70313 l 18.59375,-49.609375 18.70312,49.609375 h 14.70313 V 0 h -9.625 v 64.015625 l -18.79688,-50 h -9.90625 l -18.79687,50 V 0 h -9.57813 z"
             id="use2939"
             style="stroke-width:0.015625" />
          <path
             d="m 229.87695,64.796875 v -56.6875 h 11.92188 q 15.09375,0 22.09375,6.828125 7,6.84375 7,21.59375 0,14.640625 -7,21.453125 -7,6.8125 -22.09375,6.8125 z m -9.85937,8.109375 h 20.26562 q 21.1875,0 31.09375,-8.8125 9.92188,-8.8125 9.92188,-27.5625 0,-18.859375 -9.96875,-27.703125 Q 261.37695,0 240.2832,0 h -20.26562 z"
             id="use2941"
             style="stroke-width:0.015625" />
          <use
             x="287.20703"
             xlink:href="#DejaVuSans-7d"
             id="use2943"
             y="0"
             width="100%"
             height="100%" />
        </g>
      </g>
      <g
         id="patch_17">
        <path
           d="m 23.50918,461.18406 h 20 v -7 h -20 z"
           style="opacity:0.4;fill:#b200b2"
           id="path2948" />
      </g>
      <g
         id="text_9">
        <!-- {DE, PMD} -->
        <g
           transform="matrix(0.1,0,0,-0.1,51.50918,461.18406)"
           id="g2969">
          <use
             xlink:href="#DejaVuSans-7b"
             id="use2951"
             x="0"
             y="0"
             width="100%"
             height="100%" />
          <path
             d="m 83.294922,64.796875 v -56.6875 h 11.921875 q 15.093753,0 22.093753,6.828125 7,6.84375 7,21.59375 0,14.640625 -7,21.453125 -7,6.8125 -22.093753,6.8125 z m -9.859375,8.109375 h 20.265625 q 21.187498,0 31.093748,-8.8125 9.92188,-8.8125 9.92188,-27.5625 0,-18.859375 -9.96875,-27.703125 Q 114.79492,0 93.701172,0 H 73.435547 Z"
             id="use2953"
             style="stroke-width:0.015625" />
          <path
             d="m 150.4375,72.90625 h 46.09375 v -8.3125 H 160.29687 V 43.015625 h 34.71875 V 34.71875 H 160.29687 V 8.296875 h 37.10938 V 0 H 150.4375 Z"
             id="use2955"
             style="stroke-width:0.015625" />
          <use
             x="203.80859"
             xlink:href="#DejaVuSans-2c"
             id="use2957"
             y="0"
             width="100%"
             height="100%" />
          <use
             x="235.5957"
             xlink:href="#DejaVuSans-20"
             id="use2959"
             y="0"
             width="100%"
             height="100%" />
          <path
             d="M 287.05469,64.796875 V 37.40625 h 12.40625 q 6.89062,0 10.64062,3.5625 3.76563,3.5625 3.76563,10.15625 0,6.546875 -3.76563,10.109375 -3.75,3.5625 -10.64062,3.5625 z m -9.85938,8.109375 h 22.26563 q 12.26562,0 18.53125,-5.546875 6.28125,-5.546875 6.28125,-16.234375 0,-10.796875 -6.28125,-16.3125 -6.26563,-5.515625 -18.53125,-5.515625 H 287.05469 V 0 h -9.85938 z"
             id="use2961"
             style="stroke-width:0.015625" />
          <path
             d="m 337.49805,72.90625 h 14.70312 l 18.59375,-49.609375 18.70313,49.609375 h 14.70312 V 0 h -9.625 v 64.015625 l -18.79687,-50 h -9.90625 l -18.79688,50 V 0 h -9.57812 z"
             id="use2963"
             style="stroke-width:0.015625" />
          <path
             d="m 433.63672,64.796875 v -56.6875 h 11.92187 q 15.09375,0 22.09375,6.828125 7,6.84375 7,21.59375 0,14.640625 -7,21.453125 -7,6.8125 -22.09375,6.8125 z m -9.85938,8.109375 h 20.26563 q 21.1875,0 31.09375,-8.8125 9.92187,-8.8125 9.92187,-27.5625 0,-18.859375 -9.96875,-27.703125 Q 465.13672,0 444.04297,0 h -20.26563 z"
             id="use2965"
             style="stroke-width:0.015625" />
          <use
             x="490.9668"
             xlink:href="#DejaVuSans-7d"
             id="use2967"
             y="0"
             width="100%"
             height="100%" />
        </g>
      </g>
      <g
         id="patch_18">
        <path
           d="m 23.50918,475.86219 h 20 v -7 h -20 z"
           style="opacity:0.4;fill:#005ab2"
           id="path2972" />
      </g>
      <g
         id="text_10">
        <!-- {CS, PMD} -->
        <g
           transform="matrix(0.1,0,0,-0.1,51.50918,475.86219)"
           id="g2993">
          <use
             xlink:href="#DejaVuSans-7b"
             id="use2975"
             x="0"
             y="0"
             width="100%"
             height="100%" />
          <path
             d="M 128.0293,67.28125 V 56.890625 q -4.98438,4.640625 -10.625,6.921875 -5.64063,2.296875 -11.98438,2.296875 -12.499998,0 -19.140623,-7.640625 -6.640625,-7.640625 -6.640625,-22.09375 0,-14.40625 6.640625,-22.046875 Q 92.919922,6.6875 105.41992,6.6875 q 6.34375,0 11.98438,2.296875 5.64062,2.296875 10.625,6.9375 v -10.3125 q -5.17188,-3.515625 -10.96875,-5.28125 -5.78125,-1.75 -12.21875,-1.75 -16.562503,0 -26.093753,10.125 -9.515625,10.140625 -9.515625,27.671875 0,17.578125 9.515625,27.703125 9.53125,10.140625 26.093753,10.140625 6.53125,0 12.3125,-1.734375 5.79687,-1.734375 10.875,-5.203125 z"
             id="use2977"
             style="stroke-width:0.015625" />
          <path
             d="m 186.96289,70.515625 v -9.625 q -5.60937,2.6875 -10.59375,4 -4.98437,1.328125 -9.625,1.328125 -8.04687,0 -12.42187,-3.125 -4.375,-3.125 -4.375,-8.890625 0,-4.84375 2.90625,-7.3125 2.90625,-2.453125 11.01562,-3.96875 l 5.95313,-1.21875 q 11.03125,-2.109375 16.28125,-7.40625 5.25,-5.296875 5.25,-14.171875 0,-10.609375 -7.10938,-16.078125 -7.09375,-5.46875 -20.8125,-5.46875 -5.17187,0 -11.01562,1.171875 -5.82813,1.171875 -12.07813,3.46875 V 13.375 q 6,-3.359375 11.76563,-5.078125 5.76562,-1.703125 11.32812,-1.703125 8.4375,0 13.03125,3.3125 4.59375,3.328125 4.59375,9.484375 0,5.359375 -3.29687,8.390625 -3.29688,3.03125 -10.8125,4.546875 L 160.93164,33.5 q -11.03125,2.1875 -15.96875,6.875 -4.92187,4.6875 -4.92187,13.046875 0,9.671875 6.8125,15.234375 6.8125,5.5625 18.76562,5.5625 5.14063,0 10.45313,-0.9375 5.32812,-0.921875 10.89062,-2.765625 z"
             id="use2979"
             style="stroke-width:0.015625" />
          <use
             x="196.92383"
             xlink:href="#DejaVuSans-2c"
             id="use2981"
             y="0"
             width="100%"
             height="100%" />
          <use
             x="228.71094"
             xlink:href="#DejaVuSans-20"
             id="use2983"
             y="0"
             width="100%"
             height="100%" />
          <path
             d="M 280.16992,64.796875 V 37.40625 h 12.40625 q 6.89063,0 10.64063,3.5625 3.76562,3.5625 3.76562,10.15625 0,6.546875 -3.76562,10.109375 -3.75,3.5625 -10.64063,3.5625 z m -9.85937,8.109375 h 22.26562 q 12.26563,0 18.53125,-5.546875 6.28125,-5.546875 6.28125,-16.234375 0,-10.796875 -6.28125,-16.3125 -6.26562,-5.515625 -18.53125,-5.515625 H 280.16992 V 0 h -9.85937 z"
             id="use2985"
             style="stroke-width:0.015625" />
          <path
             d="m 330.61328,72.90625 h 14.70313 l 18.59375,-49.609375 18.70312,49.609375 h 14.70313 V 0 h -9.625 v 64.015625 l -18.79688,-50 h -9.90625 l -18.79687,50 V 0 h -9.57813 z"
             id="use2987"
             style="stroke-width:0.015625" />
          <path
             d="m 426.75195,64.796875 v -56.6875 h 11.92188 q 15.09375,0 22.09375,6.828125 7,6.84375 7,21.59375 0,14.640625 -7,21.453125 -7,6.8125 -22.09375,6.8125 z m -9.85937,8.109375 h 20.26562 q 21.1875,0 31.09375,-8.8125 9.92188,-8.8125 9.92188,-27.5625 0,-18.859375 -9.96875,-27.703125 Q 458.25195,0 437.1582,0 h -20.26562 z"
             id="use2989"
             style="stroke-width:0.015625" />
          <use
             x="484.08203"
             xlink:href="#DejaVuSans-7d"
             id="use2991"
             y="0"
             width="100%"
             height="100%" />
        </g>
      </g>
      <g
         id="patch_19">
        <path
           d="m 23.50918,490.54031 h 20 v -7 h -20 z"
           style="opacity:0.4;stroke:#000000;stroke-linejoin:miter"
           id="path2996" />
      </g>
      <g
         id="text_11">
        <!-- {DE, CS, PMD} -->
        <g
           transform="matrix(0.1,0,0,-0.1,51.50918,490.54031)"
           id="g3025">
          <use
             xlink:href="#DejaVuSans-7b"
             id="use2999"
             x="0"
             y="0"
             width="100%"
             height="100%" />
          <path
             d="m 83.294922,64.796875 v -56.6875 h 11.921875 q 15.093753,0 22.093753,6.828125 7,6.84375 7,21.59375 0,14.640625 -7,21.453125 -7,6.8125 -22.093753,6.8125 z m -9.859375,8.109375 h 20.265625 q 21.187498,0 31.093748,-8.8125 9.92188,-8.8125 9.92188,-27.5625 0,-18.859375 -9.96875,-27.703125 Q 114.79492,0 93.701172,0 H 73.435547 Z"
             id="use3001"
             style="stroke-width:0.015625" />
          <path
             d="m 150.4375,72.90625 h 46.09375 v -8.3125 H 160.29687 V 43.015625 h 34.71875 V 34.71875 H 160.29687 V 8.296875 h 37.10938 V 0 H 150.4375 Z"
             id="use3003"
             style="stroke-width:0.015625" />
          <use
             x="203.80859"
             xlink:href="#DejaVuSans-2c"
             id="use3005"
             y="0"
             width="100%"
             height="100%" />
          <use
             x="235.5957"
             xlink:href="#DejaVuSans-20"
             id="use3007"
             y="0"
             width="100%"
             height="100%" />
          <path
             d="M 331.78906,67.28125 V 56.890625 q -4.98437,4.640625 -10.625,6.921875 -5.64062,2.296875 -11.98437,2.296875 -12.5,0 -19.14063,-7.640625 -6.64062,-7.640625 -6.64062,-22.09375 0,-14.40625 6.64062,-22.046875 6.64063,-7.640625 19.14063,-7.640625 6.34375,0 11.98437,2.296875 5.64063,2.296875 10.625,6.9375 v -10.3125 q -5.17187,-3.515625 -10.96875,-5.28125 -5.78125,-1.75 -12.21875,-1.75 -16.5625,0 -26.09375,10.125 -9.51562,10.140625 -9.51562,27.671875 0,17.578125 9.51562,27.703125 9.53125,10.140625 26.09375,10.140625 6.53125,0 12.3125,-1.734375 5.79688,-1.734375 10.875,-5.203125 z"
             id="use3009"
             style="stroke-width:0.015625" />
          <path
             d="m 390.72266,70.515625 v -9.625 q -5.60938,2.6875 -10.59375,4 -4.98438,1.328125 -9.625,1.328125 -8.04688,0 -12.42188,-3.125 -4.375,-3.125 -4.375,-8.890625 0,-4.84375 2.90625,-7.3125 2.90625,-2.453125 11.01563,-3.96875 l 5.95312,-1.21875 q 11.03125,-2.109375 16.28125,-7.40625 5.25,-5.296875 5.25,-14.171875 0,-10.609375 -7.10937,-16.078125 -7.09375,-5.46875 -20.8125,-5.46875 -5.17188,0 -11.01563,1.171875 -5.82812,1.171875 -12.07812,3.46875 V 13.375 q 6,-3.359375 11.76562,-5.078125 5.76563,-1.703125 11.32813,-1.703125 8.4375,0 13.03125,3.3125 4.59375,3.328125 4.59375,9.484375 0,5.359375 -3.29688,8.390625 -3.29687,3.03125 -10.8125,4.546875 L 364.69141,33.5 q -11.03125,2.1875 -15.96875,6.875 -4.92188,4.6875 -4.92188,13.046875 0,9.671875 6.8125,15.234375 6.8125,5.5625 18.76563,5.5625 5.14062,0 10.45312,-0.9375 5.32813,-0.921875 10.89063,-2.765625 z"
             id="use3011"
             style="stroke-width:0.015625" />
          <use
             x="400.68359"
             xlink:href="#DejaVuSans-2c"
             id="use3013"
             y="0"
             width="100%"
             height="100%" />
          <use
             x="432.4707"
             xlink:href="#DejaVuSans-20"
             id="use3015"
             y="0"
             width="100%"
             height="100%" />
          <path
             d="M 483.92969,64.796875 V 37.40625 h 12.40625 q 6.89062,0 10.64062,3.5625 3.76563,3.5625 3.76563,10.15625 0,6.546875 -3.76563,10.109375 -3.75,3.5625 -10.64062,3.5625 z m -9.85938,8.109375 h 22.26563 q 12.26562,0 18.53125,-5.546875 6.28125,-5.546875 6.28125,-16.234375 0,-10.796875 -6.28125,-16.3125 -6.26563,-5.515625 -18.53125,-5.515625 H 483.92969 V 0 h -9.85938 z"
             id="use3017"
             style="stroke-width:0.015625" />
          <path
             d="m 534.37305,72.90625 h 14.70312 l 18.59375,-49.609375 18.70313,49.609375 h 14.70312 V 0 h -9.625 v 64.015625 l -18.79687,-50 h -9.90625 l -18.79688,50 V 0 h -9.57812 z"
             id="use3019"
             style="stroke-width:0.015625" />
          <path
             d="m 630.51172,64.796875 v -56.6875 h 11.92187 q 15.09375,0 22.09375,6.828125 7,6.84375 7,21.59375 0,14.640625 -7,21.453125 -7,6.8125 -22.09375,6.8125 z m -9.85938,8.109375 h 20.26563 q 21.1875,0 31.09375,-8.8125 9.92187,-8.8125 9.92187,-27.5625 0,-18.859375 -9.96875,-27.703125 Q 662.01172,0 640.91797,0 h -20.26563 z"
             id="use3021"
             style="stroke-width:0.015625" />
          <use
             x="687.8418"
             xlink:href="#DejaVuSans-7d"
             id="use3023"
             y="0"
             width="100%"
             height="100%" />
        </g>
      </g>
    </g>
  </g>
</svg>
