<?xml version="1.0" encoding="UTF-8" standalone="no"?>
<svg
   height="568pt"
   version="1.1"
   viewBox="0 0 568 568"
   width="568pt"
   id="svg3036"
   sodipodi:docname="log4j.svg"
   inkscape:version="1.1 (c68e22c387, 2021-05-23)"
   xmlns:inkscape="http://www.inkscape.org/namespaces/inkscape"
   xmlns:sodipodi="http://sodipodi.sourceforge.net/DTD/sodipodi-0.dtd"
   xmlns="http://www.w3.org/2000/svg"
   xmlns:svg="http://www.w3.org/2000/svg"
   xmlns:rdf="http://www.w3.org/1999/02/22-rdf-syntax-ns#"
   xmlns:cc="http://creativecommons.org/ns#"
   xmlns:dc="http://purl.org/dc/elements/1.1/">
  <sodipodi:namedview
     id="namedview3038"
     pagecolor="#ffffff"
     bordercolor="#666666"
     borderopacity="1.0"
     inkscape:pageshadow="2"
     inkscape:pageopacity="0.0"
     inkscape:pagecheckerboard="0"
     inkscape:document-units="pt"
     showgrid="false"
     inkscape:zoom="0.69892473"
     inkscape:cx="-47.930769"
     inkscape:cy="379.86923"
     inkscape:window-width="1366"
     inkscape:window-height="705"
     inkscape:window-x="-8"
     inkscape:window-y="-8"
     inkscape:window-maximized="1"
     inkscape:current-layer="axes_1"
     fit-margin-left="5"
     fit-margin-top="5"
     fit-margin-right="5"
     fit-margin-bottom="5" />
  <metadata
     id="metadata2773">
    <rdf:RDF>
      <cc:Work>
        <dc:type
           rdf:resource="http://purl.org/dc/dcmitype/StillImage" />
        <dc:date>2022-03-08T20:41:47.252858</dc:date>
        <dc:format>image/svg+xml</dc:format>
        <dc:creator>
          <cc:Agent>
            <dc:title>Matplotlib v3.4.2, https://matplotlib.org/</dc:title>
          </cc:Agent>
        </dc:creator>
      </cc:Work>
    </rdf:RDF>
  </metadata>
  <defs
     id="defs2777">
    <style
       type="text/css"
       id="style2775">*{stroke-linecap:butt;stroke-linejoin:round;}</style>
  </defs>
  <g
     id="figure_1"
     transform="translate(5,5)">
    <g
       id="patch_1">
      <path
         d="M 0,558 H 558 V 0 H 0 Z"
         style="fill:#ffffff"
         id="path2779" />
    </g>
    <g
       id="axes_1">
      <g
         id="patch_2">
        <path
           clip-path="url(#p589080c30a)"
           d="m 369.28698,121.81981 c -35.70794,-21.06789 -77.90402,-28.400981 -118.62625,-20.61559 -40.72224,7.7854 -77.23743,30.16673 -102.65551,62.92088 -25.41809,32.75414 -38.03305,73.68268 -35.46458,115.06282 2.56848,41.38014 20.14801,80.43451 49.4215,109.79393 -3.06054,-6.68987 -5.55156,-13.6259 -7.44655,-20.73436 -1.895,-7.10846 -3.18724,-14.36407 -3.86298,-21.68968 -16.57387,-30.77812 -22.90465,-66.05543 -18.06706,-100.676 4.83758,-34.62057 20.59578,-66.81136 44.97146,-91.86753 24.37569,-25.05618 56.12049,-41.69454 90.59477,-47.48332 34.47428,-5.78877 69.9125,-0.43149 101.1352,15.28885"
           style="opacity:0.4;fill:#ff0000"
           id="path2782" />
      </g>
      <g
         id="patch_3">
        <path
           clip-path="url(#p589080c30a)"
           d="m 369.28698,121.81981 c 23.02122,13.58266 42.52803,32.39178 56.93978,54.90325 14.41176,22.51147 23.32839,48.10038 26.02738,74.69325 2.69899,26.59287 -0.89458,53.45147 -10.48953,78.39946 -9.59496,24.94799 -24.92493,47.2928 -44.74773,65.22382 -0.41936,0.80434 -0.84706,1.6043 -1.28306,2.39974 -0.43599,0.79545 -0.88024,1.58634 -1.33267,2.37255 22.29396,-16.82972 39.93408,-39.068 51.24843,-64.60709 11.31435,-25.5391 15.93381,-53.54581 13.42052,-81.36565 -2.51328,-27.81983 -12.0773,-54.54519 -27.78557,-77.64303 -15.70828,-23.09783 -37.04834,-41.8146 -61.99755,-54.3763"
           style="opacity:0.4;fill:#008000"
           id="path2785" />
      </g>
      <g
         id="patch_4">
        <path
           clip-path="url(#p589080c30a)"
           d="m 369.28698,121.81981 c -31.2227,-15.72034 -66.66092,-21.07762 -101.1352,-15.28885 -34.47428,5.78878 -66.21908,22.42714 -90.59477,47.48332 -24.37568,25.05617 -40.13388,57.24696 -44.97146,91.86753 -4.83759,34.62057 1.49319,69.89788 18.06706,100.676 -1.86867,-20.25779 1.01172,-40.67501 8.41172,-59.62521 7.4,-18.9502 19.11775,-35.91646 34.21981,-49.54723 15.10205,-13.63077 33.17647,-23.55424 52.78341,-28.97989 19.60695,-5.42566 40.2116,-6.2055 60.17256,-2.2774 19.96096,3.9281 38.73376,12.45698 54.82292,24.90724 16.08916,12.45026 29.05582,28.48226 37.86705,46.81891 8.81122,18.33664 13.22665,38.47773 12.89456,58.81882 -0.3321,20.34108 -5.40266,40.3273 -14.80776,58.36654 19.8228,-17.93102 35.15277,-40.27583 44.74773,-65.22382 9.59495,-24.94799 13.18852,-51.80659 10.48953,-78.39946 -2.69899,-26.59287 -11.61562,-52.18178 -26.02738,-74.69325 -14.41175,-22.51147 -33.91856,-41.32059 -56.93978,-54.90325"
           style="opacity:0.4;fill:#b25a00"
           id="path2788" />
      </g>
      <g
         id="patch_5">
        <path
           clip-path="url(#p589080c30a)"
           d="m 161.96214,388.98185 c 9.99946,21.85726 25.82978,40.54304 45.74665,53.99841 19.91688,13.45537 43.16089,21.16728 67.17084,22.28598 24.00994,1.11869 47.87033,-4.39848 68.95206,-15.94361 21.08172,-11.54512 38.58094,-28.67798 50.56946,-49.51075 -3.94041,2.97462 -8.01285,5.77019 -12.20492,8.3782 -4.19208,2.60802 -8.49953,5.02583 -12.90925,7.24609 -32.5855,19.22563 -70.66261,27.06574 -108.19269,22.27696 -37.53009,-4.78878 -72.41845,-21.93916 -99.13215,-48.73128"
           style="opacity:0.4;fill:#0000ff"
           id="path2791" />
      </g>
      <g
         id="patch_6">
        <path
           clip-path="url(#p589080c30a)"
           d="m 161.96214,388.98185 c 26.7137,26.79212 61.60206,43.9425 99.13215,48.73128 37.53008,4.78878 75.60719,-3.05133 108.19269,-22.27696 -38.2225,19.24467 -82.48915,22.8212 -123.30544,9.96248 -40.8163,-12.85873 -75.03938,-41.16258 -95.32893,-78.84084 0.67574,7.32561 1.96798,14.58122 3.86298,21.68968 1.89499,7.10846 4.38601,14.04449 7.44655,20.73436"
           style="opacity:0.4;fill:#b200b2"
           id="path2794" />
      </g>
      <g
         id="patch_7">
        <path
           clip-path="url(#p589080c30a)"
           d="m 397.01688,395.03959 c -4.26295,3.85612 -8.71822,7.49413 -13.34875,10.90009 -4.63053,3.40595 -9.43038,6.5755 -14.38115,9.49649 4.40972,-2.22026 8.71717,-4.63807 12.90925,-7.24609 4.19207,-2.60801 8.26451,-5.40358 12.20492,-8.3782 0.45243,-0.78621 0.89668,-1.5771 1.33267,-2.37255 0.436,-0.79544 0.8637,-1.5954 1.28306,-2.39974"
           style="opacity:0.4;fill:#005ab2"
           id="path2797" />
      </g>
      <g
         id="patch_8">
        <path
           clip-path="url(#p589080c30a)"
           d="m 150.65261,346.55781 c 20.28955,37.67826 54.51263,65.98211 95.32893,78.84084 40.81629,12.85872 85.08294,9.28219 123.30544,-9.96248 4.95077,-2.92099 9.75062,-6.09054 14.38115,-9.49649 4.63053,-3.40596 9.0858,-7.04397 13.34875,-10.90009 9.4051,-18.03924 14.47566,-38.02546 14.80776,-58.36654 0.33209,-20.34109 -4.08334,-40.48218 -12.89456,-58.81882 -8.81123,-18.33665 -21.77789,-34.36865 -37.86705,-46.81891 -16.08916,-12.45026 -34.86196,-20.97914 -54.82292,-24.90724 -19.96096,-3.9281 -40.56561,-3.14826 -60.17256,2.2774 -19.60694,5.42565 -37.68136,15.34912 -52.78341,28.97989 -15.10206,13.63077 -26.81981,30.59703 -34.21981,49.54723 -7.4,18.9502 -10.28039,39.36742 -8.41172,59.62521"
           style="opacity:0.4;stroke:#000000;stroke-linejoin:miter"
           id="path2800" />
      </g>
      <g
         id="patch_9">
        <path
           clip-path="url(#p589080c30a)"
           d="m 282.66928,439.08404 c 45.20548,0 88.56554,-17.96032 120.53063,-49.92542 31.9651,-31.9651 49.92543,-75.32516 49.92543,-120.53063 0,-45.20547 -17.96033,-88.56553 -49.92543,-120.53063 -31.96509,-31.9651 -75.32515,-49.925422 -120.53063,-49.925422 -45.20547,0 -88.56553,17.960322 -120.53063,49.925422 -31.96509,31.9651 -49.92542,75.32516 -49.92542,120.53063 0,45.20547 17.96033,88.56553 49.92542,120.53063 31.9651,31.9651 75.32516,49.92542 120.53063,49.92542 z"
           style="fill:none;stroke:#000000;stroke-linejoin:miter"
           id="path2803" />
      </g>
      <g
         id="patch_10">
        <path
           clip-path="url(#p589080c30a)"
           d="m 295.37041,432.99435 c 43.59047,0 85.40145,-17.31868 116.22457,-48.14179 30.82311,-30.82312 48.14179,-72.6341 48.14179,-116.22457 0,-43.59047 -17.31868,-85.40145 -48.14179,-116.22457 -30.82312,-30.82311 -72.6341,-48.14179 -116.22457,-48.14179 -43.59047,0 -85.40145,17.31868 -116.22457,48.14179 -30.82311,30.82312 -48.14179,72.6341 -48.14179,116.22457 0,43.59047 17.31868,85.40145 48.14179,116.22457 30.82312,30.82311 72.6341,48.14179 116.22457,48.14179 z"
           style="fill:none;stroke:#000000;stroke-linejoin:miter"
           id="path2806" />
      </g>
      <g
         id="patch_11">
        <path
           clip-path="url(#p589080c30a)"
           d="m 280.97071,465.40806 c 34.70749,0 67.99813,-13.78943 92.54003,-38.33133 24.5419,-24.54191 38.33134,-57.83254 38.33134,-92.54004 0,-34.70749 -13.78944,-67.99812 -38.33134,-92.54003 -24.5419,-24.5419 -57.83254,-38.33133 -92.54003,-38.33133 -34.70749,0 -67.99813,13.78943 -92.54003,38.33133 -24.54191,24.54191 -38.33134,57.83254 -38.33134,92.54003 0,34.7075 13.78943,67.99813 38.33134,92.54004 24.5419,24.5419 57.83254,38.33133 92.54003,38.33133 z"
           style="fill:none;stroke:#000000;stroke-linejoin:miter"
           id="path2809" />
      </g>
    </g>
  </g>
  <defs
     id="defs3034">
    <clipPath
       id="p589080c30a">
      <rect
         height="429.66"
         width="409.94742"
         x="81.001289"
         y="66.959999"
         id="rect3031" />
    </clipPath>
  </defs>
</svg>
