<?xml version="1.0" encoding="UTF-8" standalone="no"?>
<svg
   height="568pt"
   version="1.1"
   viewBox="0 0 568 568"
   width="568pt"
   id="svg2017"
   sodipodi:docname="eclipse.svg"
   inkscape:version="1.1 (c68e22c387, 2021-05-23)"
   xmlns:inkscape="http://www.inkscape.org/namespaces/inkscape"
   xmlns:sodipodi="http://sodipodi.sourceforge.net/DTD/sodipodi-0.dtd"
   xmlns="http://www.w3.org/2000/svg"
   xmlns:svg="http://www.w3.org/2000/svg"
   xmlns:rdf="http://www.w3.org/1999/02/22-rdf-syntax-ns#"
   xmlns:cc="http://creativecommons.org/ns#"
   xmlns:dc="http://purl.org/dc/elements/1.1/">
  <sodipodi:namedview
     id="namedview2019"
     pagecolor="#ffffff"
     bordercolor="#666666"
     borderopacity="1.0"
     inkscape:pageshadow="2"
     inkscape:pageopacity="0.0"
     inkscape:pagecheckerboard="0"
     inkscape:document-units="pt"
     showgrid="false"
     inkscape:zoom="0.69892473"
     inkscape:cx="-47.930769"
     inkscape:cy="379.86923"
     inkscape:window-width="1366"
     inkscape:window-height="705"
     inkscape:window-x="-8"
     inkscape:window-y="-8"
     inkscape:window-maximized="1"
     inkscape:current-layer="axes_1"
     fit-margin-top="5"
     fit-margin-left="5"
     fit-margin-bottom="5"
     fit-margin-right="5" />
  <metadata
     id="metadata1754">
    <rdf:RDF>
      <cc:Work>
        <dc:type
           rdf:resource="http://purl.org/dc/dcmitype/StillImage" />
        <dc:date>2022-03-08T20:45:38.315305</dc:date>
        <dc:format>image/svg+xml</dc:format>
        <dc:creator>
          <cc:Agent>
            <dc:title>Matplotlib v3.4.2, https://matplotlib.org/</dc:title>
          </cc:Agent>
        </dc:creator>
      </cc:Work>
    </rdf:RDF>
  </metadata>
  <defs
     id="defs1758">
    <style
       type="text/css"
       id="style1756">*{stroke-linecap:butt;stroke-linejoin:round;}</style>
  </defs>
  <g
     id="figure_1"
     transform="translate(5,5)">
    <g
       id="patch_1">
      <path
         d="M 0,558 H 558 V 0 H 0 Z"
         style="fill:#ffffff"
         id="path1760" />
    </g>
    <g
       id="axes_1">
      <g
         id="patch_2">
        <path
           clip-path="url(#pbc43257e16)"
           d="m 269.8026,101.79379 c -44.35975,2.05377 -86.3351,20.83916 -117.42214,52.55037 -31.08705,31.71121 -49.0344,74.05165 -50.20605,118.44346 -1.17164,44.3918 14.51726,87.62002 43.88826,120.92692 29.37099,33.3069 70.29698,54.28033 114.48663,58.67122 -0.58993,-0.23767 -1.17834,-0.47907 -1.76521,-0.7242 -0.58686,-0.24513 -1.17216,-0.49399 -1.75586,-0.74655 -41.02306,-8.43866 -77.75248,-31.16026 -103.61835,-64.1005 -25.86586,-32.94024 -39.22816,-74.01055 -37.69671,-115.86454 1.53144,-41.854 17.85951,-81.83794 46.06355,-112.79975 28.20405,-30.96182 66.4958,-50.93839 108.02588,-56.35643"
           style="opacity:0.4;fill:#ff0000"
           id="path1763" />
      </g>
      <g
         id="patch_3">
        <path
           clip-path="url(#pbc43257e16)"
           d="m 269.8026,101.79379 c 42.32458,-1.959544 83.96343,11.44474 117.19629,37.72756 33.23286,26.28282 55.87054,63.71282 63.71577,105.35009 5.05185,9.94104 8.98179,20.41345 11.71721,31.22377 2.73543,10.81031 4.25938,21.89154 4.54371,33.03894 4.99165,-27.43325 3.43535,-55.66145 -4.54181,-82.37969 -7.97716,-26.71825 -22.152,-51.17898 -41.36709,-71.38492 -19.2151,-20.20594 -42.93283,-35.59173 -69.21658,-44.90109 -26.28375,-9.30936 -54.39812,-12.281814 -82.0475,-8.67466"
           style="opacity:0.4;fill:#008000"
           id="path1766" />
      </g>
      <g
         id="patch_4">
        <path
           clip-path="url(#pbc43257e16)"
           d="m 269.8026,101.79379 c -41.53008,5.41804 -79.82183,25.39461 -108.02588,56.35643 -28.20404,30.96181 -44.53211,70.94575 -46.06355,112.79975 -1.53145,41.85399 11.83085,82.9243 37.69671,115.86454 25.86587,32.94024 62.59529,55.66184 103.61835,64.1005 -22.1413,-9.58025 -41.65406,-24.35182 -56.8837,-43.06214 -15.22963,-18.71033 -25.73313,-40.81516 -30.61985,-64.44011 -4.88672,-23.62494 -4.01451,-48.08279 2.54266,-71.29963 6.55718,-23.21683 18.6086,-44.51732 35.13233,-62.09527 16.52374,-17.57794 37.03916,-30.92204 59.80663,-38.90076 22.76748,-7.97873 47.12475,-10.35999 71.00643,-6.94188 23.88168,3.41811 46.59309,12.53618 66.2084,26.58102 19.6153,14.04485 35.56394,32.60794 46.49353,54.1152 C 442.86943,203.23417 420.23175,165.80417 386.99889,139.52135 353.76603,113.23853 312.12718,99.834246 269.8026,101.79379"
           style="opacity:0.4;fill:#b25a00"
           id="path1769" />
      </g>
      <g
         id="patch_5">
        <path
           clip-path="url(#pbc43257e16)"
           d="m 260.5493,452.38576 c 23.11234,9.3112 48.18138,12.7307 72.94314,9.94967 24.76176,-2.78103 48.44771,-11.67626 68.91879,-25.88237 20.47109,-14.20612 37.09193,-33.28219 48.36153,-55.5055 11.2696,-22.2233 16.83817,-46.90407 16.20282,-71.81341 -8.13089,44.68599 -33.14664,84.57597 -69.83253,111.35459 -36.68589,26.77861 -82.30241,38.44617 -127.34045,32.57048 -1.54485,-0.0715 -3.08868,-0.16343 -4.63109,-0.27569 -1.54242,-0.11226 -3.08329,-0.24486 -4.62221,-0.39777"
           style="opacity:0.4;fill:#0000ff"
           id="path1772" />
      </g>
      <g
         id="patch_6">
        <path
           clip-path="url(#pbc43257e16)"
           d="m 260.5493,452.38576 c 1.53892,0.15291 3.07979,0.28551 4.62221,0.39777 1.54241,0.11226 3.08624,0.20416 4.63109,0.27569 -2.14124,-0.27935 -4.2772,-0.59783 -6.4068,-0.95529 -2.12959,-0.35746 -4.25247,-0.75383 -6.36757,-1.18892 0.5837,0.25256 1.169,0.50142 1.75586,0.74655 0.58687,0.24513 1.17528,0.48653 1.76521,0.7242"
           style="opacity:0.4;fill:#b200b2"
           id="path1775" />
      </g>
      <g
         id="patch_7">
        <path
           clip-path="url(#pbc43257e16)"
           d="m 450.71466,244.87144 c 4.91282,26.07399 3.86034,52.92498 -3.07831,78.53443 -6.93866,25.60945 -19.58516,49.31914 -36.9888,69.34668 -17.40363,20.02754 -39.11708,35.85818 -63.50804,46.30184 -24.39096,10.44367 -50.83251,15.23193 -77.33691,14.00483 45.03804,5.87569 90.65456,-5.79187 127.34045,-32.57048 36.68589,-26.77862 61.70164,-66.6686 69.83253,-111.35459 -0.28433,-11.1474 -1.80828,-22.22863 -4.54371,-33.03894 -2.73542,-10.81032 -6.66536,-21.28273 -11.71721,-31.22377"
           style="opacity:0.4;fill:#005ab2"
           id="path1778" />
      </g>
      <g
         id="patch_8">
        <path
           clip-path="url(#pbc43257e16)"
           d="m 257.02823,450.91501 c 2.1151,0.43509 4.23798,0.83146 6.36757,1.18892 2.1296,0.35746 4.26556,0.67594 6.4068,0.95529 26.5044,1.2271 52.94595,-3.56116 77.33691,-14.00483 24.39096,-10.44366 46.10441,-26.2743 63.50804,-46.30184 17.40364,-20.02754 30.05014,-43.73723 36.9888,-69.34668 6.93865,-25.60945 7.99113,-52.46044 3.07831,-78.53443 -10.92959,-21.50726 -26.87823,-40.07035 -46.49353,-54.1152 -19.61531,-14.04484 -42.32672,-23.16291 -66.2084,-26.58102 -23.88168,-3.41811 -48.23895,-1.03685 -71.00643,6.94188 -22.76747,7.97872 -43.28289,21.32282 -59.80663,38.90076 -16.52373,17.57795 -28.57515,38.87844 -35.13233,62.09527 -6.55717,23.21684 -7.42938,47.67469 -2.54266,71.29963 4.88672,23.62495 15.39022,45.72978 30.61985,64.44011 15.22964,18.71032 34.7424,33.48189 56.8837,43.06214"
           style="opacity:0.4;stroke:#000000;stroke-linejoin:miter"
           id="path1781" />
      </g>
      <g
         id="patch_9">
        <path
           clip-path="url(#pbc43257e16)"
           d="m 277.93405,453.24735 c 46.62824,0 91.35298,-18.52559 124.32412,-51.49673 32.97114,-32.97114 51.49673,-77.69588 51.49673,-124.32412 0,-46.62823 -18.52559,-91.35297 -51.49673,-124.32411 -32.97114,-32.97114 -77.69588,-51.49673 -124.32412,-51.49673 -46.62823,0 -91.35297,18.52559 -124.32411,51.49673 -32.97114,32.97114 -51.49673,77.69588 -51.49673,124.32411 0,46.62824 18.52559,91.35298 51.49673,124.32412 32.97114,32.97114 77.69588,51.49673 124.32411,51.49673 z"
           style="fill:none;stroke:#000000;stroke-linejoin:miter"
           id="path1784" />
      </g>
      <g
         id="patch_10">
        <path
           clip-path="url(#pbc43257e16)"
           d="m 292.71575,454.54754 c 46.97305,0 92.02853,-18.66259 125.24349,-51.87755 33.21496,-33.21496 51.87755,-78.27044 51.87755,-125.24349 0,-46.97304 -18.66259,-92.02852 -51.87755,-125.24348 -33.21496,-33.21496 -78.27044,-51.87755 -125.24349,-51.87755 -46.97304,0 -92.02852,18.66259 -125.24348,51.87755 -33.21496,33.21496 -51.87755,78.27044 -51.87755,125.24348 0,46.97305 18.66259,92.02853 51.87755,125.24349 33.21496,33.21496 78.27044,51.87755 125.24348,51.87755 z"
           style="fill:none;stroke:#000000;stroke-linejoin:miter"
           id="path1787" />
      </g>
      <g
         id="patch_11">
        <path
           clip-path="url(#pbc43257e16)"
           d="m 316.71665,463.27453 c 39.86209,0 78.0969,-15.83737 106.28366,-44.02413 28.18676,-28.18676 44.02414,-66.42158 44.02414,-106.28367 0,-39.8621 -15.83738,-78.09691 -44.02414,-106.28367 -28.18676,-28.18676 -66.42157,-44.02414 -106.28366,-44.02414 -39.8621,0 -78.09692,15.83738 -106.28367,44.02414 -28.18676,28.18676 -44.02414,66.42157 -44.02414,106.28367 0,39.86209 15.83738,78.09691 44.02414,106.28367 28.18675,28.18676 66.42157,44.02413 106.28367,44.02413 z"
           style="fill:none;stroke:#000000;stroke-linejoin:miter"
           id="path1790" />
      </g>
      <g
         id="text_2">
        <!-- CS -->
      </g>
    </g>
  </g>
  <defs
     id="defs2015">
    <clipPath
       id="pbc43257e16">
      <rect
         height="427.6955"
         width="432.45001"
         x="69.75"
         y="67.942261"
         id="rect2012" />
    </clipPath>
  </defs>
</svg>
